<mxfile host="app.diagrams.net" modified="2021-04-16T09:49:02.460Z" agent="5.0 (Macintosh; Intel Mac OS X 10_11_6) AppleWebKit/537.36 (KHTML, like Gecko) Chrome/89.0.4389.114 Safari/537.36" etag="s3jj1wxYZcoji38_14vU" version="14.5.10" type="github">
  <diagram id="E7b8pk8ebJcWwUi_jBNW" name="Page-1">
    <mxGraphModel dx="724" dy="457" grid="1" gridSize="10" guides="1" tooltips="1" connect="1" arrows="1" fold="1" page="1" pageScale="3" pageWidth="827" pageHeight="1169" math="0" shadow="0">
      <root>
        <mxCell id="0" />
        <mxCell id="1" parent="0" />
        <mxCell id="1WeVvw5AWcoQFYrIsuQS-3" style="edgeStyle=orthogonalEdgeStyle;rounded=0;orthogonalLoop=1;jettySize=auto;html=1;exitX=1;exitY=0.5;exitDx=0;exitDy=0;entryX=0;entryY=0.5;entryDx=0;entryDy=0;" edge="1" parent="1" source="1WeVvw5AWcoQFYrIsuQS-1" target="1WeVvw5AWcoQFYrIsuQS-2">
          <mxGeometry relative="1" as="geometry" />
        </mxCell>
        <mxCell id="1WeVvw5AWcoQFYrIsuQS-8" value="带有Token" style="edgeLabel;html=1;align=center;verticalAlign=middle;resizable=0;points=[];" vertex="1" connectable="0" parent="1WeVvw5AWcoQFYrIsuQS-3">
          <mxGeometry x="-0.1636" y="2" relative="1" as="geometry">
            <mxPoint as="offset" />
          </mxGeometry>
        </mxCell>
        <mxCell id="1WeVvw5AWcoQFYrIsuQS-1" value="用户" style="rounded=1;whiteSpace=wrap;html=1;" vertex="1" parent="1">
          <mxGeometry x="70" y="190" width="120" height="60" as="geometry" />
        </mxCell>
        <mxCell id="1WeVvw5AWcoQFYrIsuQS-6" value="" style="edgeStyle=orthogonalEdgeStyle;rounded=0;orthogonalLoop=1;jettySize=auto;html=1;" edge="1" parent="1" source="1WeVvw5AWcoQFYrIsuQS-2" target="1WeVvw5AWcoQFYrIsuQS-5">
          <mxGeometry relative="1" as="geometry" />
        </mxCell>
        <mxCell id="1WeVvw5AWcoQFYrIsuQS-7" value="Feign请求地址" style="edgeLabel;html=1;align=center;verticalAlign=middle;resizable=0;points=[];" vertex="1" connectable="0" parent="1WeVvw5AWcoQFYrIsuQS-6">
          <mxGeometry x="-0.2" y="-3" relative="1" as="geometry">
            <mxPoint as="offset" />
          </mxGeometry>
        </mxCell>
        <mxCell id="1WeVvw5AWcoQFYrIsuQS-2" value="Order服务" style="rounded=1;whiteSpace=wrap;html=1;" vertex="1" parent="1">
          <mxGeometry x="300" y="190" width="120" height="60" as="geometry" />
        </mxCell>
        <mxCell id="1WeVvw5AWcoQFYrIsuQS-5" value="用户服务" style="rounded=1;whiteSpace=wrap;html=1;" vertex="1" parent="1">
          <mxGeometry x="600" y="190" width="120" height="60" as="geometry" />
        </mxCell>
        <mxCell id="1WeVvw5AWcoQFYrIsuQS-9" value="注意此时没有带Token" style="text;html=1;strokeColor=none;fillColor=none;align=center;verticalAlign=middle;whiteSpace=wrap;rounded=0;" vertex="1" parent="1">
          <mxGeometry x="440" y="180" width="130" height="20" as="geometry" />
        </mxCell>
      </root>
    </mxGraphModel>
  </diagram>
</mxfile>
